<svg xmlns="http://www.w3.org/2000/svg" viewBox="0 0 1440 95" width="1440" height="95"
  preserveAspectRatio="xMidYMid meet" style="width: 100%; height: 100%; transform: translate3d(0px, 0px, 0px);">
  <defs>
    <clipPath id="__lottie_element_26">
      <rect width="1440" height="95" x="0" y="0"></rect>
    </clipPath>
    <clipPath id="__lottie_element_28">
      <path d="M0,0 L1914,0 L1914,934 L0,934z"></path>
    </clipPath>
  </defs>
  <g clip-path="url(#__lottie_element_26)">
    <g clip-path="url(#__lottie_element_28)"
      transform="matrix(0.7523499727249146,0,0,0.7523499727249146,0.0010986328125,-533.847412109375)" opacity="1"
      style="display: block;">
      <g transform="matrix(1,0,0,1,961,418)" opacity="1" style="display: block;">
        <g opacity="1" transform="matrix(1,0,0,1,-3.062000036239624,490.6409912109375)">
          <path fill="#fff" fill-opacity="1"
            d=" M2024.5428466796875,-127.8575439453125 C2024.6678466796875,-88.2325439453125 961.93798828125,126.26599884033203 961.93798828125,126.26599884033203 C961.93798828125,126.26599884033203 -961.93798828125,126.26599884033203 -961.93798828125,126.26599884033203 C-961.93798828125,126.26599884033203 -967.0685424804688,-62.77377700805664 -966.0685424804688,-134.39877319335938 C-922.7588500976562,-132.83859252929688 -811.8594360351562,-129.5775604248047 -779.552490234375,-128.55638122558594 C-740.1741943359375,-127.39027404785156 -521.4989013671875,-132.64358520507812 -481.371337890625,-132.27609252929688 C-346.02679443359375,-130.2169952392578 -242.0213165283203,-121.55477905273438 -124.8804702758789,-117.991455078125 C30.040510177612305,-113.29109191894531 225.1105499267578,-135.4773406982422 343.6183166503906,-148.2532958984375 C504.9875793457031,-162.56944274902344 565.6323852539062,-116.93525695800781 687.7628173828125,-123.91133117675781 C824.86376953125,-130.26551818847656 982.33447265625,-146.72598266601562 1120.247314453125,-108.42448425292969 C1239.7149658203125,-75.25817108154297 1869.7088623046875,-129.29981994628906 1990.7308349609375,-128.65382385253906 C2107.730712890625,-128.02882385253906 1832.6678466796875,-126.2325439453125 2024.5428466796875,-127.8575439453125z">
          </path>
        </g>
      </g>
    </g>
  </g>
</svg>