<?xml version="1.0" encoding="UTF-8" standalone="no"?>
<svg
   width="69.57428"
   height="69.57428"
   viewBox="0 0 69.574281 69.57428"
   style="overflow:visible"
   data-bbox="48 213.478546521308 470.153005093695 69.57428526419537"
   version="1.1"
   id="svg298"
   sodipodi:docname="md1927.svg"
   inkscape:version="1.2.2 (b0a8486541, 2022-12-01)"
   xmlns:inkscape="http://www.inkscape.org/namespaces/inkscape"
   xmlns:sodipodi="http://sodipodi.sourceforge.net/DTD/sodipodi-0.dtd"
   xmlns="http://www.w3.org/2000/svg"
   xmlns:svg="http://www.w3.org/2000/svg">
  <sodipodi:namedview
     id="namedview300"
     pagecolor="#ffffff"
     bordercolor="#666666"
     borderopacity="1.0"
     inkscape:showpageshadow="2"
     inkscape:pageopacity="0.0"
     inkscape:pagecheckerboard="0"
     inkscape:deskcolor="#d1d1d1"
     showgrid="false"
     inkscape:zoom="2.1757812"
     inkscape:cx="173.04129"
     inkscape:cy="62.046679"
     inkscape:window-width="2560"
     inkscape:window-height="1371"
     inkscape:window-x="0"
     inkscape:window-y="32"
     inkscape:window-maximized="1"
     inkscape:current-layer="svg298" />
  <defs
     transform="matrix(0.8029186129570007, 0, 0, 0.8029186129570007, 50.452789306640625, 50.45278549194336)"
     data-uid="o_f7b9933dc_5"
     id="defs238" />
  <g
     transform="scale(0.13588727)"
     fill="url(#o_f7b9933dc_3)"
     data-uid="o_f7b9933dc_9"
     id="g294"
     style="fill:#6c63ff;fill-opacity:1;fill-rule:nonzero"
     inkscape:export-filename="logo_md1927.png"
     inkscape:export-xdpi="61.93"
     inkscape:export-ydpi="61.93">
    <g
       fill="rgba(194,21,0,1)"
       data-uid="o_f7b9933dc_10"
       id="g264"
       style="fill:#6c63ff;fill-opacity:1;fill-rule:nonzero">
      <path
         d="m 101.993,70.331 c -17.459,0 -31.663,14.204 -31.663,31.663 0,17.459 14.204,31.663 31.663,31.663 17.459,0 31.663,-14.204 31.663,-31.663 0,-17.459 -14.204,-31.663 -31.663,-31.663 z"
         fill="rgba(194,21,0,1)"
         data-uid="o_f7b9933dc_11"
         id="path240"
         style="fill:#6c63ff;fill-opacity:1;fill-rule:nonzero" />
      <path
         d="m 410.007,378.344 c -17.459,0 -31.663,14.204 -31.663,31.663 0,17.459 14.204,31.663 31.663,31.663 17.459,0 31.663,-14.204 31.663,-31.663 0,-17.459 -14.204,-31.663 -31.663,-31.663 z"
         fill="rgba(194,21,0,1)"
         data-uid="o_f7b9933dc_12"
         id="path242"
         style="fill:#6c63ff;fill-opacity:1;fill-rule:nonzero" />
      <path
         d="m 101.993,378.344 c -17.459,0 -31.663,14.204 -31.663,31.663 0,17.459 14.204,31.663 31.663,31.663 17.459,0 31.663,-14.204 31.663,-31.663 0,-17.459 -14.204,-31.663 -31.663,-31.663 z"
         fill="rgba(194,21,0,1)"
         data-uid="o_f7b9933dc_13"
         id="path244"
         style="fill:#6c63ff;fill-opacity:1;fill-rule:nonzero" />
      <path
         fill="rgba(194,21,0,1)"
         data-type="circle"
         data-cx="410.007"
         data-cy="101.993"
         data-r="31.663"
         d="m 410.007,101.993 m -31.663,0 a 31.663,31.663 0 1 0 63.326,0 31.663,31.663 0 1 0 -63.326,0"
         data-uid="o_f7b9933dc_14"
         id="path246"
         style="fill:#6c63ff;fill-opacity:1;fill-rule:nonzero" />
      <path
         d="M 23.537,178.988 C 10.559,178.988 0,189.546 0,202.524 c 0,12.979 10.559,23.537 23.537,23.537 12.978,0 23.537,-10.559 23.537,-23.537 0,-12.978 -10.558,-23.536 -23.537,-23.536 z"
         fill="rgba(194,21,0,1)"
         data-uid="o_f7b9933dc_15"
         id="path248"
         style="fill:#6c63ff;fill-opacity:1;fill-rule:nonzero" />
      <path
         d="m 488.463,226.062 c 12.979,0 23.537,-10.559 23.537,-23.537 0,-12.978 -10.559,-23.537 -23.537,-23.537 -12.978,0 -23.537,10.559 -23.537,23.537 0,12.978 10.558,23.537 23.537,23.537 z"
         fill="rgba(194,21,0,1)"
         data-uid="o_f7b9933dc_16"
         id="path250"
         style="fill:#6c63ff;fill-opacity:1;fill-rule:nonzero" />
      <path
         d="M 23.537,285.938 C 10.559,285.938 0,296.497 0,309.476 c 0,12.978 10.559,23.537 23.537,23.537 12.978,0 23.537,-10.559 23.537,-23.537 0,-12.979 -10.558,-23.538 -23.537,-23.538 z"
         fill="rgba(194,21,0,1)"
         data-uid="o_f7b9933dc_17"
         id="path252"
         style="fill:#6c63ff;fill-opacity:1;fill-rule:nonzero" />
      <path
         d="m 488.463,285.938 c -12.979,0 -23.537,10.559 -23.537,23.537 0,12.978 10.559,23.537 23.537,23.537 12.978,0 23.537,-10.558 23.537,-23.536 0,-12.979 -10.559,-23.538 -23.537,-23.538 z"
         fill="rgba(194,21,0,1)"
         data-uid="o_f7b9933dc_18"
         id="path254"
         style="fill:#6c63ff;fill-opacity:1;fill-rule:nonzero" />
      <path
         fill="rgba(194,21,0,1)"
         data-type="circle"
         data-cx="309.476"
         data-cy="23.537"
         data-r="23.537"
         d="m 309.476,23.537 m -23.537,0 a 23.537,23.537 0 1 0 47.074,0 23.537,23.537 0 1 0 -47.074,0"
         data-uid="o_f7b9933dc_19"
         id="path256"
         style="fill:#6c63ff;fill-opacity:1;fill-rule:nonzero" />
      <path
         fill="rgba(194,21,0,1)"
         data-type="circle"
         data-cx="309.476"
         data-cy="488.463"
         data-r="23.537"
         d="m 309.476,488.463 m -23.537,0 a 23.537,23.537 0 1 0 47.074,0 23.537,23.537 0 1 0 -47.074,0"
         data-uid="o_f7b9933dc_20"
         id="path258"
         style="fill:#6c63ff;fill-opacity:1;fill-rule:nonzero" />
      <path
         d="m 202.524,464.926 c -12.978,0 -23.537,10.559 -23.537,23.537 0,12.978 10.559,23.537 23.537,23.537 12.979,0 23.537,-10.559 23.537,-23.537 0,-12.978 -10.558,-23.537 -23.537,-23.537 z"
         fill="rgba(194,21,0,1)"
         data-uid="o_f7b9933dc_21"
         id="path260"
         style="fill:#6c63ff;fill-opacity:1;fill-rule:nonzero" />
      <path
         d="m 202.524,47.074 c 12.979,0 23.537,-10.559 23.537,-23.537 C 226.062,10.559 215.503,0 202.524,0 c -12.978,0 -23.537,10.559 -23.537,23.537 0.001,12.978 10.559,23.537 23.537,23.537 z"
         fill="rgba(194,21,0,1)"
         data-uid="o_f7b9933dc_22"
         id="path262"
         style="fill:#6c63ff;fill-opacity:1;fill-rule:nonzero" />
    </g>
    <g
       fill="rgba(234,74,53,1)"
       data-uid="o_f7b9933dc_23"
       id="g282"
       style="fill:#6c63ff;fill-opacity:1;fill-rule:nonzero">
      <path
         d="m 101.993,170.862 c -17.459,0 -31.663,14.204 -31.663,31.663 0,17.459 14.204,31.663 31.663,31.663 17.459,0 31.663,-14.204 31.663,-31.663 0,-17.459 -14.204,-31.663 -31.663,-31.663 z"
         fill="rgba(234,74,53,1)"
         data-uid="o_f7b9933dc_24"
         id="path266"
         style="fill:#6c63ff;fill-opacity:1;fill-rule:nonzero" />
      <path
         d="m 410.007,170.862 c -17.459,0 -31.663,14.204 -31.663,31.663 0,17.459 14.204,31.663 31.663,31.663 17.459,0 31.663,-14.204 31.663,-31.663 0,-17.459 -14.204,-31.663 -31.663,-31.663 z"
         fill="rgba(234,74,53,1)"
         data-uid="o_f7b9933dc_25"
         id="path268"
         style="fill:#6c63ff;fill-opacity:1;fill-rule:nonzero" />
      <path
         d="m 101.993,277.813 c -17.459,0 -31.663,14.204 -31.663,31.663 0,17.459 14.204,31.663 31.663,31.663 17.459,0 31.663,-14.204 31.663,-31.663 0,-17.459 -14.204,-31.663 -31.663,-31.663 z"
         fill="rgba(234,74,53,1)"
         data-uid="o_f7b9933dc_26"
         id="path270"
         style="fill:#6c63ff;fill-opacity:1;fill-rule:nonzero" />
      <path
         d="m 410.007,277.813 c -17.459,0 -31.663,14.204 -31.663,31.663 0,17.459 14.204,31.663 31.663,31.663 17.459,0 31.663,-14.204 31.663,-31.663 0,-17.459 -14.204,-31.663 -31.663,-31.663 z"
         fill="rgba(234,74,53,1)"
         data-uid="o_f7b9933dc_27"
         id="path272"
         style="fill:#6c63ff;fill-opacity:1;fill-rule:nonzero" />
      <path
         d="m 309.476,133.656 c 17.459,0 31.662,-14.204 31.662,-31.663 0,-17.459 -14.203,-31.663 -31.662,-31.663 -17.459,0 -31.663,14.204 -31.663,31.663 0,17.459 14.204,31.663 31.663,31.663 z"
         fill="rgba(234,74,53,1)"
         data-uid="o_f7b9933dc_28"
         id="path274"
         style="fill:#6c63ff;fill-opacity:1;fill-rule:nonzero" />
      <path
         d="m 309.476,378.344 c -17.459,0 -31.663,14.204 -31.663,31.663 0,17.459 14.204,31.663 31.663,31.663 17.459,0 31.662,-14.204 31.662,-31.663 0,-17.459 -14.203,-31.663 -31.662,-31.663 z"
         fill="rgba(234,74,53,1)"
         data-uid="o_f7b9933dc_29"
         id="path276"
         style="fill:#6c63ff;fill-opacity:1;fill-rule:nonzero" />
      <path
         d="m 202.524,133.656 c 17.459,0 31.663,-14.204 31.663,-31.663 0,-17.459 -14.204,-31.663 -31.663,-31.663 -17.459,0 -31.663,14.204 -31.663,31.663 0,17.459 14.204,31.663 31.663,31.663 z"
         fill="rgba(234,74,53,1)"
         data-uid="o_f7b9933dc_30"
         id="path278"
         style="fill:#6c63ff;fill-opacity:1;fill-rule:nonzero" />
      <path
         d="m 202.524,378.344 c -17.459,0 -31.663,14.204 -31.663,31.663 0,17.459 14.204,31.663 31.663,31.663 17.459,0 31.663,-14.204 31.663,-31.663 0,-17.459 -14.204,-31.663 -31.663,-31.663 z"
         fill="rgba(234,74,53,1)"
         data-uid="o_f7b9933dc_31"
         id="path280"
         style="fill:#6c63ff;fill-opacity:1;fill-rule:nonzero" />
    </g>
    <g
       fill="rgba(255,96,76,1)"
       data-uid="o_f7b9933dc_32"
       id="g292"
       style="fill:#f50057;fill-opacity:1;fill-rule:nonzero">
      <path
         transform="matrix(0.78969264,-0.18666939,0.18666939,0.78969264,5.2335272,83.338036)"
         fill="rgba(255,96,76,1)"
         data-cx="202.525"
         data-cy="202.525"
         data-rx="48.358"
         data-ry="48.358"
         d="m 154.167,202.525 c 0,-26.70739 21.65061,-48.358 48.358,-48.358 26.70739,0 48.358,21.65061 48.358,48.358 0,26.70739 -21.65061,48.358 -48.358,48.358 -26.70739,0 -48.358,-21.65061 -48.358,-48.358 z"
         data-uid="o_f7b9933dc_33"
         id="path284"
         style="fill:#6c63ff;fill-opacity:1;fill-rule:nonzero" />
      <path
         d="m 309.476,261.117 c -26.665,0 -48.358,21.693 -48.358,48.358 0,26.665 21.693,48.358 48.358,48.358 26.664,0 48.357,-21.693 48.357,-48.358 0,-26.664 -21.693,-48.358 -48.357,-48.358 z"
         fill="rgba(255,96,76,1)"
         transform="matrix(0.81143045,0.01687745,-0.01687745,0.81143045,63.878544,54.007072)"
         data-uid="o_f7b9933dc_34"
         id="path286"
         style="fill:#f50057;fill-opacity:1;fill-rule:nonzero" />
      <path
         transform="matrix(0.57380551,-0.57380551,0.57380551,0.57380551,-90.861435,248.96997)"
         fill="rgba(255,96,76,1)"
         data-cx="202.525"
         data-cy="309.475"
         data-rx="48.358"
         data-ry="48.358"
         d="m 154.167,309.475 c 0,-26.70739 21.65061,-48.358 48.358,-48.358 26.70739,0 48.358,21.65061 48.358,48.358 0,26.70739 -21.65061,48.358 -48.358,48.358 -26.70739,0 -48.358,-21.65061 -48.358,-48.358 z"
         data-uid="o_f7b9933dc_35"
         id="path288"
         style="fill:#f50057;fill-opacity:1;fill-rule:nonzero" />
      <path
         d="m 309.476,154.167 c -26.665,0 -48.358,21.693 -48.358,48.358 0,26.665 21.693,48.358 48.358,48.358 26.664,0 48.357,-21.693 48.357,-48.358 0,-26.665 -21.693,-48.358 -48.357,-48.358 z"
         fill="rgba(255,96,76,1)"
         transform="matrix(0.81160593,0,0,0.81160593,58.601082,41.175915)"
         data-uid="o_f7b9933dc_36"
         id="path290"
         style="fill:#f50057;fill-opacity:1;fill-rule:nonzero" />
    </g>
  </g>
</svg>
